<?xml version="1.0" standalone="no"?>
<!DOCTYPE svg PUBLIC "-//W3C//DTD SVG 20010904//EN"
 "http://www.w3.org/TR/2001/REC-SVG-20010904/DTD/svg10.dtd">
<svg version="1.0" xmlns="http://www.w3.org/2000/svg"
 width="260.000000pt" height="260.000000pt" viewBox="0 0 260.000000 260.000000"
 preserveAspectRatio="xMidYMid meet">
<g transform="translate(0.000000,260.000000) scale(0.100000,-0.100000)"
fill="#000000" stroke="none">
<path d="M20 1540 l0 -172 121 3 c118 4 121 5 145 32 38 44 26 104 -25 127
l-26 12 23 9 c44 17 51 94 11 134 -17 17 -35 20 -134 23 l-115 4 0 -172z m164
108 c23 -32 20 -55 -9 -74 -39 -26 -60 -15 -61 31 0 22 2 46 4 53 7 20 50 14
66 -10z m9 -149 c9 -12 17 -27 17 -35 0 -24 -38 -54 -68 -54 -28 0 -28 1 -27
53 1 28 3 55 4 59 2 14 57 -3 74 -23z"/>
<path d="M909 1643 c-1 -95 -1 -202 0 -240 1 -31 3 -33 35 -33 34 0 35 1 38
48 l3 47 23 -47 c21 -43 27 -48 58 -48 19 0 34 2 34 5 0 3 -14 33 -30 66 l-31
60 26 43 c28 47 30 56 15 56 -6 0 -30 -30 -53 -67 l-42 -68 -3 123 -3 122 -34
0 -35 0 -1 -67z"/>
<path d="M1395 1693 c-65 -34 -92 -73 -98 -145 -5 -46 15 -102 47 -134 67 -66
187 -65 250 3 24 26 25 29 9 41 -14 10 -20 9 -38 -11 -71 -83 -163 -38 -169
81 -3 60 9 97 41 122 37 29 75 25 110 -10 26 -27 31 -29 48 -16 19 14 19 15 1
34 -44 50 -141 67 -201 35z"/>
<path d="M425 1600 c-61 -25 -93 -112 -60 -168 60 -101 210 -72 228 45 14 86
-84 158 -168 123z m82 -47 c11 -31 10 -96 -1 -130 -9 -27 -51 -32 -60 -7 -3 9
-6 42 -6 74 0 74 6 90 35 90 16 0 26 -8 32 -27z"/>
<path d="M693 1594 c-62 -31 -83 -129 -38 -178 65 -70 167 -58 204 24 22 50
16 92 -18 126 -46 46 -93 55 -148 28z m87 -29 c17 -20 17 -130 0 -150 -15 -18
-49 -20 -55 -2 -10 25 -11 103 -3 135 9 35 36 43 58 17z"/>
<path d="M1710 1592 c-106 -53 -76 -206 44 -219 133 -15 184 171 61 223 -45
18 -62 18 -105 -4z m94 -59 c5 -25 5 -61 0 -85 -8 -36 -13 -43 -36 -46 -22 -3
-27 2 -33 27 -9 41 -4 123 8 139 6 7 20 12 31 10 16 -2 23 -14 30 -45z"/>
<path d="M1910 1597 c0 -22 52 -182 66 -204 16 -26 65 -32 82 -10 15 19 61
211 52 221 -16 17 -29 -5 -46 -82 -10 -42 -20 -80 -23 -84 -4 -4 -17 31 -31
77 -14 47 -27 85 -30 86 -41 7 -70 5 -70 -4z"/>
<path d="M2180 1593 c-14 -10 -17 -29 -18 -100 -1 -128 -5 -123 90 -123 58 0
79 3 76 12 -3 7 -22 13 -43 14 -40 3 -55 16 -50 43 2 9 4 19 4 24 1 4 17 7 37
7 28 0 35 4 32 17 -2 12 -13 17 -38 17 -32 1 -35 3 -33 30 3 36 6 40 46 40 21
1 32 6 32 16 0 12 -13 15 -59 15 -32 0 -66 -5 -76 -12z"/>
<path d="M2360 1491 l0 -121 40 0 40 0 0 105 c0 96 2 105 19 105 44 0 53 -72
10 -85 -11 -4 -19 -10 -17 -13 2 -4 16 -31 31 -59 27 -52 28 -53 73 -53 l46 0
-22 28 c-56 73 -55 70 -25 98 21 20 26 30 20 52 -12 48 -29 57 -125 60 l-90 4
0 -121z"/>
<path d="M1420 1316 c0 -9 12 -21 26 -27 24 -9 25 -11 12 -27 -9 -9 -15 -24
-16 -32 0 -8 -3 -57 -7 -109 -11 -140 22 -100 40 48 4 30 11 65 16 78 l9 23
34 -22 c40 -26 55 -52 49 -87 -5 -33 -48 -88 -87 -111 -17 -10 -38 -25 -46
-32 -24 -21 22 -23 62 -2 18 10 55 26 82 35 42 15 51 15 63 3 24 -24 52 -16
102 31 26 25 51 45 54 45 10 0 2 -41 -10 -48 -16 -11 -21 -35 -11 -55 9 -17
12 -16 46 9 20 16 43 35 49 44 11 13 16 12 34 -12 25 -33 32 -34 69 -8 l28 20
16 -25 c21 -31 20 -44 -4 -75 -23 -30 -26 -76 -5 -84 32 -12 86 25 99 69 3 11
0 31 -8 45 -11 22 -10 29 8 55 44 65 62 71 46 15 -16 -55 4 -60 51 -13 l41 42
23 -27 c21 -24 24 -25 46 -11 20 14 24 14 40 -2 24 -24 50 -15 102 37 25 24
48 44 52 44 4 0 5 -25 1 -55 -3 -30 -3 -55 1 -55 19 0 73 41 73 55 0 14 -3 13
-25 -1 l-26 -17 12 26 c15 33 5 73 -22 87 -22 12 -49 -1 -49 -25 0 -14 -65
-75 -80 -75 -21 0 -19 21 5 56 29 42 31 62 10 70 -21 9 -45 -14 -66 -62 -22
-54 -36 -61 -51 -30 -14 33 -41 33 -66 1 -27 -34 -32 -31 -19 10 8 26 7 39 -1
47 -9 9 -22 1 -54 -33 -24 -24 -51 -55 -60 -68 -14 -20 -20 -22 -33 -11 -19
16 -19 54 0 70 9 7 25 25 35 40 17 24 18 30 6 39 -17 15 -41 -8 -92 -86 -38
-60 -62 -67 -71 -23 -9 47 -23 47 -66 1 -21 -23 -40 -41 -42 -39 -2 2 2 25 8
51 17 78 -1 81 -72 14 -80 -77 -134 -79 -76 -3 28 37 30 47 13 64 -19 19 -48
-5 -73 -61 -17 -39 -30 -55 -54 -64 -29 -10 -44 -2 -21 12 18 11 50 83 50 113
0 57 -71 114 -159 128 -34 5 -41 4 -41 -10z m990 -150 c0 -2 -7 -9 -15 -16
-13 -11 -14 -10 -9 4 5 14 24 23 24 12z m-729 -29 c-10 -9 -11 -8 -5 6 3 10 9
15 12 12 3 -3 0 -11 -7 -18z m409 -164 c0 -21 -29 -53 -47 -53 -18 0 -17 7 8
46 21 34 39 37 39 7z"/>
<path d="M10 1273 c0 -11 120 -13 686 -13 544 0 685 3 682 13 -7 19 -1368 20
-1368 0z"/>
<path d="M1936 1254 c-19 -19 -21 -44 -3 -44 19 0 37 21 37 42 0 22 -13 23
-34 2z"/>
<path d="M10 1203 c0 -11 132 -13 686 -13 544 0 685 3 682 13 -7 18 -1368 19
-1368 0z"/>
<path d="M10 1133 c0 -7 10 -13 23 -13 28 -1 1200 -1 1285 0 46 0 63 3 59 13
-3 9 -149 12 -685 12 -539 0 -682 -3 -682 -12z"/>
<path d="M17 1068 c-6 -4 -8 -10 -5 -14 9 -8 1356 -9 1365 0 4 3 3 9 -1 13 -9
10 -1344 10 -1359 1z"/>
</g>
</svg>
